# xmcd
#
# Track frame offsets:
# 150
# 12520
# 25133
# 42428
# 55413
# 70593
# 83383
# 100228
# 114790
# 127815
# 140243
# 151815
# 164670
# 184853
# 197585
# 225363
# 236145
# 250280
# 262870
# 274398
#
# Disc length: 3808 seconds
#
#
# Revision: 7
# Processed by: cddbd v1.5.1PL0 Copyright (c) Steve Scherf et al.
# Submitted via: FreeRIP 2.941 
#
DISCID=0a0ede14
DTITLE=Various Artist - The Ultimate Blues Collection
DYEAR=1989
DGENRE=Blues
TTITLE0=John Lee Hooker - Whisky And Wimmen
TTITLE1=John Lee Hooker - Hobo Blues
TTITLE2=John Lee Hooker - Blues Before Sunrise
TTITLE3=Muddy Waters - Mannish Boy
TTITLE4=Muddy Waters - They Call Me Muddy Waters
TTITLE5=Muddy Waters - I'm Your Hoochie Coochie Man
TTITLE6=Mitty Collier - I Had A Talk With My Man
TTITLE7=Mitty Collier - I Gotta Get Away From It All
TTITLE8=Elmore James - Dust My Broom
TTITLE9=Elmore James - Cry For Me, Baby
TTITLE10=Sonny Boy Williamson - Born Blind
TTITLE11=Sonny Boy Williamson - Like A Wolf
TTITLE12=Lowell Fulson - IWant To Know
TTITLE13=Lowell Fulson - Lonely Hours
TTITLE14=Johnny Guitar Watson - Polka Dots And Moonbeams
TTITLE15=Johnny Guitar Watson - Reconsider, Baby
TTITLE16=Little Walter - Blues With A Feeling
TTITLE17=Little Walter - Tell Me Mama
TTITLE18=Little Milton Campbell - Can't Hold Back The Tears
TTITLE19=Little Milton Campbell - I Play Dirty
EXTD=more info - MillenniumMusicProjectFormat - SYNTAX=SongTitle{Subtitle}[miscInfo](Lyricist;Compose
EXTT0=
EXTT1=
EXTT2=
EXTT3=
EXTT4=
EXTT5=
EXTT6=
EXTT7=
EXTT8=
EXTT9=
EXTT10=
EXTT11=
EXTT12=
EXTT13=
EXTT14=
EXTT15=
EXTT16=
EXTT17=
EXTT18=
EXTT19=
PLAYORDER=
